<svg width="200" height="200" viewBox="0 0 200 200" fill="none" xmlns="http://www.w3.org/2000/svg">
  <rect width="200" height="200" fill="#F3F4F6"/>
  <path d="M100 60C88.9543 60 80 68.9543 80 80V120C80 131.046 88.9543 140 100 140C111.046 140 120 131.046 120 120V80C120 68.9543 111.046 60 100 60Z" fill="#D1D5DB"/>
  <path d="M70 100C70 94.4772 74.4772 90 80 90H120C125.523 90 130 94.4772 130 100V110C130 115.523 125.523 120 120 120H80C74.4772 120 70 115.523 70 110V100Z" fill="#9CA3AF"/>
  <circle cx="90" cy="80" r="5" fill="#6B7280"/>
  <circle cx="110" cy="80" r="5" fill="#6B7280"/>
</svg>
